<svg xmlns="http://www.w3.org/2000/svg" viewBox="-48 -58 96 66" width="96" height="66">
  <ellipse cx="8" cy="5" rx="42" ry="9" fill="rgba(0,0,0,0.20)"/>
  <!-- Top (open/broken) -->
  <polygon points="-40,-48 40,-48 44,-52 -36,-52" fill="#c0a878"/>
  <!-- Side -->
  <polygon points="40,-48 44,-52 44,0 40,0" fill="#a08848"/>
  <!-- Front -->
  <rect x="-40" y="-48" width="80" height="48" fill="#b09858" rx="1"/>
  <!-- Plank lines -->
  <line x1="-40" y1="-32" x2="40" y2="-32" stroke="#8a7840" stroke-width="1.5"/>
  <line x1="-40" y1="-16" x2="40" y2="-16" stroke="#8a7840" stroke-width="1.5"/>
  <line x1="-12" y1="-48" x2="-12" y2="0" stroke="#8a7840" stroke-width="1"/>
  <line x1="14" y1="-48" x2="14" y2="0" stroke="#8a7840" stroke-width="1"/>
  <!-- Metal corners -->
  <rect x="-40" y="-48" width="8" height="8" rx="1" fill="#888"/>
  <rect x="32" y="-48" width="8" height="8" rx="1" fill="#888"/>
  <rect x="-40" y="-8" width="8" height="8" rx="1" fill="#888"/>
  <rect x="32" y="-8" width="8" height="8" rx="1" fill="#888"/>
  <!-- Broken crack -->
  <path d="M -40,-48 L -22,-30 L -30,-12" stroke="#5a3808" stroke-width="2.8" fill="none"/>
  <path d="M -22,-30 L -14,-42" stroke="#5a3808" stroke-width="1.8" fill="none"/>
  <!-- Broken splinter -->
  <polygon points="-40,-48 -18,-42 -26,-32" fill="#8a6830" opacity="0.7"/>
  <text x="0" y="-22" text-anchor="middle" font-size="7" fill="#5a4020" font-family="Arial">FARM BOX</text>
</svg>