<svg xmlns="http://www.w3.org/2000/svg" viewBox="-35 -80 70 90" width="70" height="90">
  <!-- Palm -->
  <path d="M -24,4 C -32,-10 -30,-30 -22,-32 C -15,-34 -10,-27 -8,-23 C -6,-19 5,-19 7,-23 C 9,-27 15,-34 22,-32 C 30,-30 30,-10 24,4 C 20,15 13,23 8,27 C 4,31 -4,31 -8,27 C -13,23 -20,15 -24,4 Z"
    fill="#f2d000" stroke="#b89800" stroke-width="2.5"/>
  <!-- Fingers -->
  <rect x="-25" y="-78" width="10" height="54" rx="5" fill="#f2d000" stroke="#b89800" stroke-width="2"/>
  <rect x="-13" y="-82" width="10" height="58" rx="5" fill="#f2d000" stroke="#b89800" stroke-width="2"/>
  <rect x="-1" y="-84" width="10" height="60" rx="5" fill="#f2d000" stroke="#b89800" stroke-width="2"/>
  <rect x="11" y="-80" width="10" height="56" rx="5" fill="#f2d000" stroke="#b89800" stroke-width="2"/>
  <rect x="20" y="-72" width="9" height="44" rx="4.5" fill="#f2d000" stroke="#b89800" stroke-width="2"/>
  <!-- Shine -->
  <ellipse cx="-4" cy="-28" rx="7" ry="14" fill="rgba(255,255,220,0.35)"/>
</svg>