<svg xmlns="http://www.w3.org/2000/svg" viewBox="-95 -165 190 185" width="190" height="185">
  <ellipse cx="15" cy="15" rx="85" ry="17" fill="rgba(0,0,0,0.20)"/>
  <!-- Side wall -->
  <polygon points="95,-105 138,-130 138,-10 95,0" fill="#6a7060"/>
  <!-- Front wall - rough stone texture via overlapping rects -->
  <rect x="-95" y="-105" width="190" height="105" fill="#8a9085"/>
  <!-- Stone blocks pattern -->
  <rect x="-90" y="-100" width="42" height="22" rx="2" fill="#7a8078" opacity="0.6"/>
  <rect x="-44" y="-100" width="50" height="22" rx="2" fill="#909888" opacity="0.5"/>
  <rect x="10" y="-100" width="38" height="22" rx="2" fill="#7e867c" opacity="0.6"/>
  <rect x="52" y="-100" width="38" height="22" rx="2" fill="#9aa09a" opacity="0.5"/>
  <rect x="-95" y="-74" width="55" height="20" rx="2" fill="#7a8078" opacity="0.6"/>
  <rect x="-36" y="-74" width="45" height="20" rx="2" fill="#909888" opacity="0.5"/>
  <rect x="14" y="-74" width="50" height="20" rx="2" fill="#7e867c" opacity="0.6"/>
  <rect x="-95" y="-50" width="40" height="22" rx="2" fill="#8a9085" opacity="0.7"/>
  <rect x="-50" y="-50" width="55" height="22" rx="2" fill="#7a8078" opacity="0.6"/>
  <rect x="10" y="-50" width="48" height="22" rx="2" fill="#909888" opacity="0.5"/>
  <rect x="-95" y="-24" width="60" height="24" rx="2" fill="#7e867c" opacity="0.6"/>
  <rect x="-30" y="-24" width="42" height="24" rx="2" fill="#8a9085" opacity="0.7"/>
  <!-- Door (arched) -->
  <path d="M -26,-2 L -26,-55 Q -26,-68 0,-68 Q 26,-68 26,-55 L 26,-2 Z" fill="#3a2808"/>
  <!-- Windows small & deep -->
  <rect x="-82" y="-88" width="28" height="20" rx="4" fill="#c8d8e8" stroke="#5a5850" stroke-width="2.5"/>
  <rect x="54" y="-88" width="28" height="20" rx="4" fill="#c8d8e8" stroke="#5a5850" stroke-width="2.5"/>
  <!-- Roof - low-pitched wood shingles -->
  <polygon points="-95,-105 95,-105 55,-158 -55,-158" fill="#5a4028"/>
  <polygon points="95,-105 138,-130 98,-183 55,-158" fill="#4a3018"/>
  <!-- Shingle lines -->
  <line x1="-95" y1="-118" x2="95" y2="-118" stroke="#4a3018" stroke-width="2"/>
  <line x1="-88" y1="-130" x2="84" y2="-130" stroke="#4a3018" stroke-width="2"/>
  <line x1="-75" y1="-142" x2="72" y2="-142" stroke="#4a3018" stroke-width="2"/>
</svg>