<svg xmlns="http://www.w3.org/2000/svg" viewBox="-38 -75 76 88" width="76" height="88">
  <ellipse cx="0" cy="5" rx="17" ry="5.5" fill="rgba(0,0,0,0.20)"/>
  <ellipse cx="-11" cy="-51" rx="5.5" ry="14" transform="rotate(-10,-11,-51)" fill="#b08060"/>
  <ellipse cx="1" cy="-50" rx="5.5" ry="14" transform="rotate(10,1,-50)" fill="#b08060"/>
  <ellipse cx="-11" cy="-51" rx="3.5" ry="11" transform="rotate(-10,-11,-51)" fill="#e8b090"/>
  <ellipse cx="1" cy="-50" rx="3.5" ry="11" transform="rotate(10,1,-50)" fill="#e8b090"/>
  <ellipse cx="0" cy="-16" rx="17" ry="15" fill="#b08060"/>
  <ellipse cx="-4" cy="-22" rx="9" ry="6" transform="rotate(15,-4,-22)" fill="rgba(255,255,255,0.20)"/>
  <ellipse cx="-4" cy="-32" rx="14" ry="13" fill="#c09070"/>
  <circle cx="16" cy="-13" r="6.5" fill="#c09070"/>
  <circle cx="-9" cy="-33" r="4.0" fill="#ff8080"/>
  <circle cx="-9" cy="-33" r="2.2" fill="#cc0000"/>
  <circle cx="-8.2" cy="-34.2" r="0.9" fill="white"/>
  <ellipse cx="-1" cy="-28" rx="2.8" ry="2.2" fill="#e8b090"/>
  <line x1="-2" y1="-27" x2="15" y2="-24" stroke="rgba(140,100,100,0.5)" stroke-width="1.2" stroke-linecap="round"/>
  <line x1="-2" y1="-29" x2="15" y2="-29" stroke="rgba(140,100,100,0.5)" stroke-width="1.2" stroke-linecap="round"/>
  <ellipse cx="-11" cy="-3" rx="9" ry="5.5" transform="rotate(-18,-11,-3)" fill="#b08060"/>
  <ellipse cx="7" cy="-3" rx="9" ry="5.5" transform="rotate(18,7,-3)" fill="#b08060"/>
</svg>